<?xml version="1.0" encoding="UTF-8"?>
<svg width="21px" height="21px" viewBox="0 0 21 21" version="1.1" xmlns="http://www.w3.org/2000/svg" xmlns:xlink="http://www.w3.org/1999/xlink">
    <title>删除</title>
    <g id="1.9.17-商标档案自定义字段" stroke="none" stroke-width="1" fill="none" fill-rule="evenodd">
        <g id="商标档案-【设置】" transform="translate(-1343.000000, -260.000000)" fill-rule="nonzero">
            <g id="编组-23" transform="translate(956.000000, 144.000000)">
                <g id="编组-22" transform="translate(5.481481, 105.500000)">
                    <g id="编组-17" transform="translate(237.518519, 10.500000)">
                        <g id="删除" transform="translate(144.606742, 0.000000)">
                            <rect id="矩形" fill="#CCCCCC" opacity="0" x="0" y="0" width="20.3932584" height="20.3932584"></rect>
                            <path d="M11.6122901,2.83519266 C12.5257432,2.83519266 13.2756961,3.55747033 13.3099506,4.47028097 L13.3110889,4.53398571 L13.3109156,5.10019266 L16.425537,5.10024428 C16.7309883,5.0988831 16.982476,5.34002296 16.9939368,5.64526221 C17.0053976,5.95050147 16.7727006,6.20982097 16.4680069,6.23136309 L16.425537,6.23278455 L15.57615,6.23298635 C15.5761497,6.23367191 15.5761481,6.23435773 15.5761453,6.23504382 L15.5744417,6.27751364 L14.7660994,16.5147237 C14.7212978,17.082016 14.2624965,17.5279718 13.6941609,17.5566501 L13.6372514,17.5580658 L6.756007,17.5580658 C6.18686524,17.5580658 5.70609866,17.135755 5.63282166,16.5713501 L5.62715902,16.5147237 L4.81881665,6.27723051 L4.81891561,6.23219266 L3.96772133,6.23278455 C3.66226995,6.23414586 3.41078214,5.99300597 3.39932134,5.68776661 C3.38786054,5.38252725 3.62055763,5.12320771 3.9252515,5.10166571 L3.96772133,5.10024428 L7.08191561,5.10019266 L7.08217527,4.53398571 C7.08217527,3.62053258 7.80445294,2.87057967 8.71726358,2.83632518 L8.78096832,2.83519266 L11.6122901,2.83519266 Z M7.60891561,6.23219266 L5.95091561,6.23219266 L6.756007,16.4255371 L13.6372514,16.4255371 L14.4419156,6.23219266 L12.784511,6.23392576 C12.7783915,6.23435238 12.7722443,6.23468235 12.766071,6.23491414 L12.7059156,6.23219266 L7.68792781,6.23393995 C7.68187573,6.2343597 7.67579659,6.23468493 7.6696918,6.23491414 L7.60891561,6.23219266 Z M13.0279509,14.1604797 L13.0279509,14.726744 C13.0279509,14.8769267 12.9682911,15.0209582 12.862096,15.1271534 C12.7559008,15.2333486 12.6118692,15.2930084 12.4616866,15.2930084 L7.93157179,15.2930084 C7.78138915,15.2930084 7.63735759,15.2333486 7.53116242,15.1271534 C7.42496725,15.0209582 7.36530743,14.8769267 7.36530743,14.726744 L7.36530743,14.1604797 L13.0279509,14.1604797 Z M11.6122901,3.96772135 L8.78096832,3.96772135 C8.48463517,3.96762757 8.23834459,4.19601733 8.21611963,4.49151589 L8.21470396,4.53398571 L8.21391561,5.10019266 L12.1779156,5.10019266 L12.1785544,4.53398571 C12.1786482,4.23765256 11.9502584,3.99136199 11.6547599,3.96913702 L11.6122901,3.96772135 Z" id="形状结合" fill="currentColor"></path>
                        </g>
                    </g>
                </g>
            </g>
        </g>
    </g>
</svg>
