<?xml version="1.0" encoding="UTF-8"?>
<svg width="21px" height="21px" viewBox="0 0 21 21" version="1.1" xmlns="http://www.w3.org/2000/svg" xmlns:xlink="http://www.w3.org/1999/xlink">
    <title>筛选</title>
    <defs>
        <rect id="path-1" x="0" y="0" width="20.3932584" height="20.3932584"></rect>
    </defs>
    <g id="1.9.17-商标档案自定义字段" stroke="none" stroke-width="1" fill="none" fill-rule="evenodd">
        <g id="商标档案-【设置】" transform="translate(-1235.000000, -260.000000)">
            <g id="编组-23" transform="translate(956.000000, 144.000000)">
                <g id="编组-22" transform="translate(5.481481, 105.500000)">
                    <g id="编组-17" transform="translate(237.518519, 10.500000)">
                        <g id="筛选" transform="translate(36.151685, 0.000000)">
                            <mask id="mask-2" fill="white">
                                <use xlink:href="#path-1"></use>
                            </mask>
                            <g id="蒙版"></g>
                            <path d="M17.467274,4.95876562 C17.1514188,4.19772601 16.3823829,3.70786517 15.509368,3.70786517 L4.88676168,3.70786517 C4.01550189,3.70786517 3.24924143,4.19677337 2.92981487,4.95321192 C2.62975555,5.66254534 2.79046882,6.44758343 3.34587347,7.00751416 L6.9412589,10.6419865 L6.94309562,10.6438918 L7.69166232,11.3993777 C7.9090487,11.6207556 7.69819289,11.9805301 7.69819289,12.303415 L7.69819289,15.8843773 C7.69819289,16.258867 8.04002746,16.6011494 8.4198822,16.6011494 C8.79696145,16.6011494 9.14342865,16.2598197 9.14151029,15.8843773 L9.14151029,12.3024624 C9.14151029,11.6271808 9.12946955,10.9122937 8.66318679,10.4418303 L5.49420682,7.23624966 L5.48767625,7.23077703 L4.31556121,6.04814253 C4.08892999,5.82025832 4.13723581,5.58694203 4.18737835,5.46974675 C4.27282679,5.27054316 4.43164211,5.14132838 4.81429275,5.14132838 L15.6310203,5.14132838 C16.0183035,5.14132838 16.1232825,5.27054316 16.2040371,5.46974675 C16.2505266,5.58503674 16.2969957,5.81385332 16.0629359,6.04631832 L12.6885899,9.56369675 C12.6557534,9.59750542 12.6265087,9.6346382 12.6013047,9.67438568 L11.8545748,10.4491879 C11.3883124,10.9196514 11.3046803,11.6271808 11.3028436,12.303415 L11.3028436,18.7495808 C11.3028436,19.1250435 11.6465149,19.4662921 12.0245329,19.4662921 C12.4016121,19.4662921 12.7443242,19.1250435 12.746161,18.7495808 L12.746161,12.3052392 C12.746161,11.9823543 12.6068965,11.6225798 12.8335278,11.3956685 L15.9932629,8.08310815 L17.0381338,7.00656152 C17.5991303,6.45311686 17.7634966,5.6671464 17.467274,4.95963719 L17.467274,4.95876562 Z" id="Fill-1" fill="currentColor" mask="url(#mask-2)"></path>
                        </g>
                    </g>
                </g>
            </g>
        </g>
    </g>
</svg>
