<?xml version="1.0" encoding="UTF-8"?>
<svg width="21px" height="21px" viewBox="0 0 21 21" version="1.1" xmlns="http://www.w3.org/2000/svg" xmlns:xlink="http://www.w3.org/1999/xlink">
    <title>固定</title>
    <defs>
        <rect id="path-1" x="0" y="0" width="20.3932584" height="20.3932584"></rect>
    </defs>
    <g id="1.9.17-商标档案自定义字段" stroke="none" stroke-width="1" fill="none" fill-rule="evenodd">
        <g id="商标档案-【设置】" transform="translate(-1271.000000, -260.000000)">
            <g id="编组-23" transform="translate(956.000000, 144.000000)">
                <g id="编组-22" transform="translate(5.481481, 105.500000)">
                    <g id="编组-17" transform="translate(237.518519, 10.500000)">
                        <g id="固定" transform="translate(72.303371, 0.000000)">
                            <mask id="mask-2" fill="white">
                                <use xlink:href="#path-1"></use>
                            </mask>
                            <g id="蒙版"></g>
                            <path d="M9.30142912,11.8750272 C9.39231598,11.6639783 9.36003776,11.4208879 9.21706196,11.240118 L6.14022268,7.35329327 C5.98777616,7.16097665 5.73668777,7.07260275 5.49541325,7.12653998 C4.96336025,7.24720391 4.40504546,7.17243295 3.92464676,6.91621416 L6.97289088,3.90560388 C7.23264932,4.38003458 7.30834643,4.93160884 7.18591339,5.45715223 C7.13123944,5.69538441 7.2206851,5.94333297 7.41547534,6.09373356 L11.4556284,9.21404859 C11.6289837,9.3474116 11.858111,9.38404011 12.0625549,9.31166435 C13.4236846,8.83547115 14.930375,8.99859342 16.1547054,9.75468627 L12.9041448,12.965906 L9.65234893,16.1770353 C8.84523336,14.9023813 8.69868888,13.2797 9.30142912,11.8750272 Z M17.8886473,16.9978438 L14.2581371,13.4122721 L17.5828621,10.1294675 C17.7087495,10.0052786 17.7764857,9.83474475 17.7697143,9.65899118 C17.7629201,9.4833506 17.6822132,9.31837543 17.5470152,9.20399326 C16.0145891,7.90522907 13.9089101,7.46265908 11.9764949,8.01423334 L8.50021559,5.3292575 C8.61594593,4.2842717 8.24420884,3.24396333 7.49000576,2.5021739 C7.24051871,2.25582967 6.83606875,2.25582967 6.5865817,2.5021739 L2.50472547,6.5341795 C2.38478593,6.65256121 2.31741573,6.81310751 2.31741573,6.98054566 C2.31741573,7.14798381 2.38478593,7.30855271 2.50472547,7.42691182 C3.2554285,8.17224886 4.30880559,8.53950558 5.36682653,8.42485224 L7.9870354,11.735744 C7.28940499,13.7105199 7.70714597,15.9554114 9.09437728,17.5532142 C9.21072527,17.6860575 9.37756087,17.7653929 9.55521689,17.7723752 L9.57996886,17.7723752 C9.74948097,17.7723752 9.91176422,17.7067105 10.0314064,17.5880802 L13.3552392,14.3045525 L16.9856579,17.8905535 C17.1052314,18.0091838 17.2676748,18.0758427 17.4371869,18.0758427 C17.6066304,18.0758427 17.7690738,18.0091838 17.8886473,17.8905535 C18.008564,17.7721944 18.0758427,17.6116481 18.0758427,17.4442099 C18.0758427,17.2767492 18.008564,17.1162029 17.8886473,16.9978438 Z" id="guding" fill="currentColor" mask="url(#mask-2)"></path>
                        </g>
                    </g>
                </g>
            </g>
        </g>
    </g>
</svg>
